# File created by Blade
# Date/Time:  Tue Sep 23 19:18:47 2014
# Frame Rate: 120.000 fps
#------------------------------------------------------
:FULLY-SPECIFIED
:DEGREES
1262
root -0.188899 34.456891 0.325034 114.636756 9.329661 -34.720194
Spine -72.286953 -1.999742 30.036835
Head -16.979214 15.793794 40.607137
LeftShoulder -17.275189 30.460319 39.007712
LeftArm 100.408027 -67.497483 -105.840796
LeftForeArm -14.158018 -0.000000 118.380708
LeftHand -60.352467 -0.000000 5.335811
LeftHandThumb1 -26.253704 0.000000 33.147579
RightShoulder -37.038237 -40.513388 -3.651102
RightArm 29.485382 51.762748 65.857031
RightForeArm 84.433245 -0.000000 -6.409082
RightHand 7.522257 -0.000000 19.465388
RightHandThumb1 -24.326973 -0.000000 -32.862282
LeftUpLeg -113.303611 36.511289 -0.811670
LeftLeg -3.657005 -0.000000 0.000000
LeftFoot 2.837544 3.263185 14.313925
LeftToeBase -2.646358 -0.000000 0.000000
RightUpLeg 7.513958 3.654208 -30.661226
RightLeg 60.799976 -0.000000 -0.000000
RightFoot 32.738125 7.400808 2.628799
RightToeBase 35.249528 -0.000000 -0.000000
1263
root -0.160241 34.457675 0.297746 114.925884 9.243015 -34.769207
Spine -72.275297 -1.888462 30.060124
Head -17.056527 15.999282 40.519513
LeftShoulder -17.262132 30.423272 39.093255
LeftArm 101.057813 -67.455163 -106.574023
LeftForeArm -14.151664 -0.000000 118.103499
LeftHand -60.373951 -0.000000 5.234626
LeftHandThumb1 -26.253704 0.000000 33.147579
RightShoulder -36.862023 -40.465110 -3.829738
RightArm 29.367465 51.764866 65.676917
RightForeArm 84.421593 -0.000000 -6.473032
RightHand 7.394731 -0.000000 19.450789
RightHandThumb1 -24.326973 -0.000000 -32.862282
LeftUpLeg -113.662504 36.477100 -1.168285
LeftLeg -3.820293 -0.000000 0.000000
LeftFoot 2.913674 3.084641 14.148243
LeftToeBase -2.662661 -0.000000 0.000000
RightUpLeg 7.497341 3.785974 -30.752379
RightLeg 60.685490 -0.000000 -0.000000
RightFoot 32.684239 7.362563 2.521943
RightToeBase 35.255793 -0.000000 -0.000000
1264
root -0.127389 34.459199 0.271325 115.282908 9.104893 -34.773014
Spine -72.346661 -1.795249 30.041294
Head -17.228800 16.377387 40.367209
LeftShoulder -17.261162 30.452453 39.174753
LeftArm 101.934652 -67.336075 -107.564689
LeftForeArm -14.172394 -0.000000 117.830159
LeftHand -60.396850 -0.000000 4.883470
LeftHandThumb1 -26.253704 0.000000 33.147579
RightShoulder -36.762613 -40.437995 -3.958259
RightArm 29.351303 51.765750 65.558013
RightForeArm 84.353877 0.000000 -6.546446
RightHand 7.339664 0.000000 19.505460
RightHandThumb1 -24.326973 -0.000000 -32.862282
LeftUpLeg -114.066418 36.362772 -1.587036
LeftLeg -4.016598 -0.000000 0.000000
LeftFoot 3.027476 2.920536 14.011797
LeftToeBase -2.630221 -0.000000 0.000000
RightUpLeg 7.471572 3.831869 -30.880780
RightLeg 60.547396 -0.000000 -0.000000
RightFoot 32.710151 7.348668 2.401020
RightToeBase 35.193855 -0.000000 -0.000000
1265
root -0.097105 34.459030 0.242585 115.558830 8.920393 -34.756622
Spine -72.351385 -1.792677 30.026617
Head -17.345747 16.659848 40.234753
LeftShoulder -17.307328 30.482264 39.235724
LeftArm 102.747256 -67.238060 -108.534140
LeftForeArm -14.140595 -0.000000 117.591475
LeftHand -60.438306 -0.000000 4.651695
LeftHandThumb1 -26.253704 0.000000 33.147579
RightShoulder -36.559831 -40.372542 -4.169421
RightArm 29.172700 51.715555 65.296389
RightForeArm 84.404361 -0.000000 -6.664175
RightHand 7.223291 -0.000000 19.503100
RightHandThumb1 -24.326973 -0.000000 -32.862282
LeftUpLeg -114.377075 36.194893 -2.039546
LeftLeg -4.257487 -0.000000 0.000000
LeftFoot 3.141793 2.672460 13.854718
LeftToeBase -2.629022 -0.000000 0.000000
RightUpLeg 7.584588 3.857364 -31.035767
RightLeg 60.374499 -0.000000 -0.000000
RightFoot 32.697676 7.275218 2.275059
RightToeBase 35.283392 -0.000000 -0.000000
1266
root -0.068173 34.463194 0.215718 115.931352 8.780902 -34.835357
Spine -72.425988 -1.653830 30.031627
Head -17.377388 16.886412 40.131284
LeftShoulder -17.323476 30.445035 39.284064
LeftArm 103.342247 -67.290147 -109.168966
LeftForeArm -14.209260 -0.000000 117.312413
LeftHand -60.537039 -0.000000 4.742869
LeftHandThumb1 -26.253704 0.000000 33.147579
RightShoulder -36.354815 -40.349286 -4.424980
RightArm 29.115962 51.832960 65.269990
RightForeArm 84.172317 -0.000000 -6.648247
RightHand 7.137726 -0.000000 19.236736
RightHandThumb1 -24.326973 -0.000000 -32.862282
LeftUpLeg -114.846561 36.121971 -2.582504
LeftLeg -4.464634 -0.000000 0.000000
LeftFoot 3.212213 2.465534 13.708238
LeftToeBase -2.514483 -0.000000 0.000000
RightUpLeg 7.525810 3.923933 -31.176238
RightLeg 60.230572 -0.000000 -0.000000
RightFoot 32.721646 7.273346 2.194323
RightToeBase 35.281460 -0.000000 -0.000000
1267
root -0.043947 34.466951 0.188776 116.228508 8.652832 -34.917258
Spine -72.403023 -1.563882 30.082485
Head -17.483939 17.136822 40.019825
LeftShoulder -17.458440 30.489023 39.222275
LeftArm 104.267945 -67.271355 -110.121298
LeftForeArm -14.172040 -0.000000 117.026763
LeftHand -60.511089 -0.000000 4.594073
LeftHandThumb1 -26.253704 0.000000 33.147579
RightShoulder -36.199497 -40.206217 -4.650428
RightArm 28.975524 51.658385 64.968771
RightForeArm 84.316443 -0.000000 -6.835042
RightHand 7.176313 -0.000000 19.335450
RightHandThumb1 -24.326973 -0.000000 -32.862282
LeftUpLeg -115.188306 36.089419 -3.027106
LeftLeg -4.697838 -0.000000 0.000000
LeftFoot 3.324886 2.302487 13.407332
LeftToeBase -2.498913 -0.000000 0.000000
RightUpLeg 7.556998 4.032345 -31.275938
RightLeg 60.066472 -0.000000 -0.000000
RightFoot 32.739670 7.272995 2.130938
RightToeBase 35.274596 -0.000000 -0.000000
1268
root -0.018305 34.470546 0.161870 116.610263 8.494924 -35.010773
Spine -72.475714 -1.426939 30.040459
Head -17.557591 17.298327 39.925947
LeftShoulder -17.510685 30.443341 39.252843
LeftArm 105.023283 -67.290018 -110.899670
LeftForeArm -14.145440 -0.000000 116.702352
LeftHand -60.607272 -0.000000 4.284821
LeftHandThumb1 -26.253704 0.000000 33.147579
RightShoulder -36.148857 -40.149764 -4.773579
RightArm 28.918883 51.515731 64.715530
RightForeArm 84.403866 -0.000000 -7.034355
RightHand 7.093022 -0.000000 19.295048
RightHandThumb1 -24.326973 -0.000000 -32.862282
LeftUpLeg -115.695855 36.000106 -3.647221
LeftLeg -4.911743 -0.000000 0.000000
LeftFoot 3.410379 2.039257 13.286858
LeftToeBase -2.480321 -0.000000 0.000000
RightUpLeg 7.526924 4.066493 -31.414770
RightLeg 59.885068 -0.000000 -0.000000
RightFoot 32.752774 7.279360 2.084225
RightToeBase 35.320855 -0.000000 -0.000000
1269
root 0.005771 34.471208 0.135806 116.971106 8.332303 -35.042353
Spine -72.582013 -1.364014 30.031326
Head -17.561975 17.430749 39.862444
LeftShoulder -17.560628 30.441537 39.299583
LeftArm 105.710145 -67.258159 -111.617398
LeftForeArm -14.121531 -0.000000 116.375449
LeftHand -60.533370 0.000000 4.123218
LeftHandThumb1 -26.253704 0.000000 33.147579
RightShoulder -36.070099 -40.211876 -4.877397
RightArm 28.993495 51.560171 64.669446
RightForeArm 84.219939 0.000000 -7.152475
RightHand 7.060258 0.000000 19.100503
RightHandThumb1 -24.326973 -0.000000 -32.862282
LeftUpLeg -116.086980 35.905544 -4.074019
LeftLeg -5.094953 -0.000000 0.000000
LeftFoot 3.507716 1.917584 13.171975
LeftToeBase -2.414928 -0.000000 0.000000
RightUpLeg 7.581902 4.055084 -31.509898
RightLeg 59.665498 -0.000000 -0.000000
RightFoot 32.796115 7.386664 1.987261
RightToeBase 35.334318 -0.000000 -0.000000
1270
root 0.027384 34.469781 0.109019 117.303831 8.153326 -35.074780
Spine -72.653885 -1.302824 29.947675
Head -17.649781 17.521662 39.795487
LeftShoulder -17.553841 30.341412 39.344995
LeftArm 106.364717 -67.334815 -112.253202
LeftForeArm -14.227360 0.000000 116.020545
LeftHand -60.489029 -0.000000 4.132045
LeftHandThumb1 -26.253704 0.000000 33.147579
RightShoulder -36.122375 -40.244779 -4.926823
RightArm 28.998068 51.440064 64.525766
RightForeArm 84.264947 -0.000000 -7.305841
RightHand 7.021543 -0.000000 18.977972
RightHandThumb1 -24.326973 -0.000000 -32.862282
LeftUpLeg -116.451347 35.800417 -4.505637
LeftLeg -5.268449 -0.000000 0.000000
LeftFoot 3.562026 1.816828 13.051749
LeftToeBase -2.361944 -0.000000 0.000000
RightUpLeg 7.680666 4.026591 -31.604220
RightLeg 59.440648 -0.000000 -0.000000
RightFoot 32.779370 7.357195 2.037868
RightToeBase 35.522401 -0.000000 -0.000000
1271
root 0.044964 34.471936 0.085701 117.707216 8.041782 -35.171852
Spine -72.777481 -1.169118 29.971228
Head -17.650420 17.666216 39.765854
LeftShoulder -17.620020 30.324569 39.399788
LeftArm 107.025417 -67.360620 -112.910214
LeftForeArm -14.229427 -0.000000 115.648496
LeftHand -60.488033 -0.000000 3.877354
LeftHandThumb1 -26.253704 0.000000 33.147579
RightShoulder -36.055101 -40.233190 -5.050149
RightArm 28.927955 51.308782 64.281359
RightForeArm 84.357045 -0.000000 -7.551548
RightHand 6.915902 -0.000000 19.051483
RightHandThumb1 -24.326973 -0.000000 -32.862282
LeftUpLeg -116.922073 35.802552 -4.940058
LeftLeg -5.408473 -0.000000 0.000000
LeftFoot 3.634944 1.722998 12.955854
LeftToeBase -2.392627 -0.000000 0.000000
RightUpLeg 7.636942 4.026348 -31.628274
RightLeg 59.269699 -0.000000 -0.000000
RightFoot 32.780016 7.302446 2.054742
RightToeBase 35.580888 -0.000000 -0.000000
1272
root 0.056799 34.472469 0.057978 118.019864 8.014943 -35.251426
Spine -72.786468 -1.055908 30.049715
Head -17.723950 17.795416 39.735082
LeftShoulder -17.661280 30.170982 39.448407
LeftArm 107.424899 -67.544244 -113.243515
LeftForeArm -14.330104 0.000000 115.187227
LeftHand -60.303012 0.000000 3.758007
LeftHandThumb1 -26.253704 0.000000 33.147579
RightShoulder -35.987225 -40.140574 -5.235221
RightArm 28.716091 51.189333 64.016920
RightForeArm 84.332540 -0.000000 -7.716916
RightHand 6.839603 -0.000000 19.119945
RightHandThumb1 -24.326973 -0.000000 -32.862282
LeftUpLeg -117.274729 35.879670 -5.137811
LeftLeg -5.489397 -0.000000 0.000000
LeftFoot 3.696095 1.738885 12.881673
LeftToeBase -2.305002 -0.000000 0.000000
RightUpLeg 7.668043 4.088517 -31.541440
RightLeg 59.111259 -0.000000 -0.000000
RightFoot 32.748225 7.357341 2.032562
RightToeBase 35.731581 -0.000000 -0.000000
